<?xml version="1.0" encoding="utf-8"?>
<!-- Generator: Adobe Illustrator 25.4.1, SVG Export Plug-In . SVG Version: 6.00 Build 0)  -->
<svg version="1.1" id="Capa_1" xmlns="http://www.w3.org/2000/svg" xmlns:xlink="http://www.w3.org/1999/xlink" x="0px" y="0px"
	 viewBox="0 0 1920 392.6" style="enable-background:new 0 0 1920 392.6;" xml:space="preserve">
<style type="text/css">
	.st0{fill:#6C369C;}
</style>
<path class="st0" d="M628.6,13.8l-99.3,314.4c-12.1,38.4-47.7,64.5-88,64.5h-0.1c-42,0-78.7-28.3-89.3-69l-43.3-165.8L266,323.4
	c-10.5,40.8-47.2,69.2-89.3,69.2c-40.2,0-75.7-26-87.9-64.3l-100-314.5C-13.5,7-8.4,0-1.2,0h111.3c4.6,0,8.7,3,10.1,7.4l66.5,208.9
	l35.7-148.3C232,28.1,267.6,0,308.6,0c41,0,76.6,28.1,86.2,67.9l36.8,152.8L497.1,7.5C498.5,3,502.6,0,507.2,0h111.3
	C625.6,0,630.7,6.9,628.6,13.8"/>
<path class="st0" d="M873.6,13c26.2,8.6,45.9,25.4,59.3,50.3c13.3,24.9,20,61.4,20,109.5v219.9H829.6l-15.7-50.3
	c-7.8,16.2-20.5,29.3-38.1,39.3c-17.5,10-38.9,14.9-64,14.9c-37.2,0-65.8-11-86-33c-20.2-22-30.2-55-30.2-98.9
	c0-44,10.1-76.9,30.2-98.9c20.1-22,48.8-33,86-33c25.1,0,46.5,5,64,14.9c17.5,9.9,30.2,23,38.1,39.3v-14.1c0-24.1-4.3-42.3-13-54.6
	c-8.6-12.3-25.8-18.4-51.4-18.4h-99.7c-5.4,0-9.3-5.3-7.7-10.5l26.6-83.6c1.1-3.3,4.2-5.6,7.7-5.6h88.8C811.3,0,847.4,4.3,873.6,13
	 M805.3,288.6c5.8-5.5,8.6-13.5,8.6-24c0-10.5-2.9-18.4-8.6-23.9c-5.8-5.5-16-8.2-30.6-8.2c-14.7,0-25,2.7-31,8.2
	c-6,5.5-9,13.5-9,23.9c0,10.5,3,18.5,9,24c6,5.5,16.4,8.2,31,8.2C789.3,296.8,799.5,294.1,805.3,288.6"/>
<path class="st0" d="M1595.6,13.8l-99.3,314.4c-12.1,38.4-47.7,64.5-88,64.5h-0.1c-42,0-78.7-28.3-89.3-69l-43.3-165.8L1233,323.4
	c-10.5,40.8-47.2,69.2-89.3,69.2c-40.2,0-75.7-26-87.9-64.3l-100-314.5C953.6,7,958.7,0,965.8,0h111.3c4.6,0,8.7,3,10.1,7.4
	l66.5,208.9l35.7-148.3C1199,28.1,1234.7,0,1275.7,0c41,0,76.6,28.1,86.2,67.9l36.8,152.8l65.5-213.3c1.4-4.4,5.5-7.5,10.1-7.5
	h111.3C1592.7,0,1597.8,6.9,1595.6,13.8"/>
<path class="st0" d="M1840.7,13c26.2,8.6,45.9,25.4,59.3,50.3c13.3,24.9,20,61.4,20,109.5v219.9h-123.3l-15.7-50.3
	c-7.9,16.2-20.5,29.3-38.1,39.3c-17.5,10-38.9,14.9-64,14.9c-37.2,0-65.8-11-86-33c-20.2-22-30.2-55-30.2-98.9
	c0-44,10.1-76.9,30.2-98.9c20.1-22,48.8-33,86-33c25.1,0,46.5,5,64,14.9c17.5,9.9,30.2,23,38.1,39.3v-14.1c0-24.1-4.3-42.3-13-54.6
	c-8.6-12.3-25.8-18.4-51.4-18.4h-99.7c-5.4,0-9.3-5.3-7.7-10.5l26.6-83.6c1.1-3.3,4.2-5.6,7.7-5.6h88.8
	C1778.4,0,1814.5,4.3,1840.7,13 M1772.4,288.6c5.8-5.5,8.6-13.5,8.6-24c0-10.5-2.9-18.4-8.6-23.9c-5.8-5.5-16-8.2-30.6-8.2
	c-14.7,0-25,2.7-31,8.2c-6,5.5-9,13.5-9,23.9c0,10.5,3,18.5,9,24c6,5.5,16.4,8.2,31,8.2C1756.4,296.8,1766.6,294.1,1772.4,288.6"/>
</svg>
